<?xml version="1.0" standalone="no"?><!DOCTYPE svg PUBLIC "-//W3C//DTD SVG 1.1//EN" "http://www.w3.org/Graphics/SVG/1.1/DTD/svg11.dtd" ><svg xmlns="http://www.w3.org/2000/svg"><metadata></metadata><defs><font id="Ping Hei Bold; 1.000000; 0000-00-00" horiz-adv-x="1000"><font-face font-family="Ping Hei" font-weight="700" font-stretch="normal" units-per-em="1000" panose-1="2 1 8 0 4 1 1 1 1 1" ascent="800" descent="-200" x-height="1" bbox="-1 -150 822 728" underline-thickness="0" underline-position="0" unicode-range="U+0020-9ebb" /><missing-glyph horiz-adv-x="1000" d="M167 157 l-81 0 l-10 258 l0 206 l102 0 l0 -205 l-11 -259 ZM128 139 q28 0 48 -20 q20 -20 20 -48 q0 -28 -20 -48 q-20 -20 -48 -20 q-28 0 -48 20 q-20 20 -20 48 q0 28 20 48 q20 20 48 20 Z" /><glyph glyph-name="" unicode=" " d="M167 157 l-81 0 l-10 258 l0 206 l102 0 l0 -205 l-11 -259 ZM128 139 q28 0 48 -20 q20 -20 20 -48 q0 -28 -20 -48 q-20 -20 -48 -20 q-28 0 -48 20 q-20 20 -20 48 q0 28 20 48 q20 20 48 20 Z" /><glyph glyph-name="" unicode="," d="M128 173 q28 0 48 -20.5 q20 -20.5 20 -47.5 q0 -57 -32 -97.5 q-32 -40.5 -86 -74.5 l-47 72 q23 15 35 24 q12 9 18 17 q-11 9 -18 24.5 q-7 15.5 -6 34.5 q2 28 21 48 q19 20 47 20 Z" /><glyph glyph-name="" unicode="-" d="M510 221 l-480 0 l0 89 l480 0 l0 -89 Z" /><glyph glyph-name="" unicode="." d="M128 173 q28 0 48 -20 q20 -20 20 -48 q0 -28 -20 -48 q-20 -20 -48 -20 q-28 0 -48 20 q-20 20 -20 48 q0 28 20 48 q20 20 48 20 Z" /><glyph glyph-name="" unicode="3" d="M384 329 q71 -53 71 -141 q0 -88 -57.5 -144 q-57.5 -56 -161.5 -56 q-76 0 -133.5 46 q-57.5 46 -76.5 182 l106 0 q7 -67 31.5 -97 q24.5 -30 77.5 -30 q53 0 81.5 24.5 q28.5 24.5 28.5 69.5 q0 88 -107 88 l-60 0 l0 98 l59 0 q40 0 64 21.5 q24 21.5 24 55.5 q0 34 -23.5 55.5 q-23.5 21.5 -67 21.5 q-43.5 0 -66 -31 q-22.5 -31 -27.5 -95 l-109 0 q20 119 67.5 172 q47.5 53 135 53 q87.5 0 140.5 -49.5 q53 -49.5 53 -122.5 q0 -73 -50 -121 Z" /><glyph glyph-name="" unicode="c" d="M562 247 q-34 -120 -92 -189 q-58 -69 -184 -69 q-126 0 -197 83.5 q-71 83.5 -71 232 q0 148.5 75.5 234.5 q75.5 86 203.5 86 q186 0 250 -220 l-107 0 q-45 117 -143 117 q-79 0 -127 -55.5 q-48 -55.5 -48 -154.5 q0 -218 169 -218 q65 0 100 36.5 q35 36.5 58 116.5 l113 0 Z" /><glyph glyph-name="" unicode="e" d="M500 0 l-450 0 l0 605 l444 0 l0 -100 l-340 0 l0 -145 l314 0 l0 -100 l-314 0 l0 -161 l346 0 l0 -99 Z" /><glyph glyph-name="" unicode="j" d="M369 176 q0 -95 -45 -141.5 q-45 -46.5 -134.5 -46.5 q-89.5 0 -133.5 41.5 q-44 41.5 -44 117.5 l0 73 l103 0 l0 -65 q0 -36 17 -51.5 q17 -15.5 56 -15.5 q39 0 58.5 19 q19.5 19 19.5 64 l0 436 l103 0 l0 -431 Z" /><glyph glyph-name="" unicode="m" d="M675 1 l-103 0 l0 350 l-153 -350 l-61 0 l-154 353 l0 -353 l-103 0 l0 605 l98 0 l190 -428 l185 428 l101 0 l0 -605 Z" /><glyph glyph-name="" unicode="q" d="M644 39 l-61 -89 l-92 71 q-65 -37 -145 -37 q-137 0 -214.5 88 q-77.5 88 -77.5 227.5 q0 139.5 80.5 230 q80.5 90.5 212.5 90.5 q132 0 212 -91 q80 -91 80 -228 q0 -126 -66 -209 l71 -53 ZM491 155 q43 59 43 151 q0 92 -51.5 152 q-51.5 60 -136.5 60 q-85 0 -136.5 -61.5 q-51.5 -61.5 -51.5 -157.5 q0 -96 51 -154.5 q51 -58.5 137 -58.5 q28 0 54 8 l-50 37 l67 81 l74 -57 Z" /><glyph glyph-name="" unicode="r" d="M547 1 l-123 0 q-13 95 -13 160 q0 48 -21 67 q-21 19 -69 19 l-173 0 l0 -246 l-104 0 l0 605 l277 0 q99 0 151.5 -44 q52.5 -44 52.5 -129 q0 -85 -61 -134 q44 -40 49 -106 l6 -85 q0 -8 5.5 -12 q5.5 -4 22.5 -8 l0 -87 ZM148 348 l167 0 q52 0 80 21 q28 21 28 60 q0 78 -93 78 l-182 0 l0 -159 Z" /><glyph glyph-name="" unicode="s" d="M402 409 q-10 60 -40.5 89 q-30.5 29 -86 29 q-55.5 0 -87 -22.5 q-31.5 -22.5 -31.5 -61 q0 -38.5 23 -52 q23 -13.5 128 -29.5 q105 -16 158.5 -57 q53.5 -41 53.5 -126 q0 -190 -239 -190 q-120 0 -177 54 q-57 54 -76 177 l107 0 q11 -67 41 -98 q30 -31 104 -31 q137 0 137 78 q0 43 -29 61.5 q-29 18.5 -122.5 33.5 q-93.5 15 -152 46.5 q-58.5 31.5 -58.5 122.5 q0 91 56 142.5 q56 51.5 161.5 51.5 q105.5 0 160 -52.5 q54.5 -52.5 76.5 -165.5 l-107 0 Z" /><glyph glyph-name="" unicode="t" d="M495 503 l-183 0 l0 -504 l-104 0 l0 504 l-183 0 l0 100 l470 0 l0 -100 Z" /><glyph glyph-name="" unicode="a" d="M461 -4 q-37 -9 -64 -9 q-27 0 -45 9.5 q-18 9.5 -27 29.5 q-53 -39 -145 -39 q-69 0 -108 38.5 q-39 38.5 -39 100.5 q0 62 33 98.5 q33 36.5 106 49.5 l116 20 q25 2 25 24 q0 22 -17.5 33 q-17.5 11 -60.5 11 q-43 0 -60.5 -20 q-17.5 -20 -21.5 -63 l-103 0 q11 95 56 137.5 q45 42.5 132 42.5 q87 0 131 -36 q44 -36 44 -98 l0 -226 q0 -11 12 -14 q12 -3 36 -3 l0 -86 ZM313 167 l0 31 q-33 -8 -87.5 -14.5 q-54.5 -6.5 -72 -18 q-17.5 -11.5 -17.5 -34.5 q0 -23 15 -34.5 q15 -11.5 53.5 -11.5 q38.5 0 73.5 25.5 q35 25.5 35 56.5 Z" /><glyph glyph-name="" unicode="b" d="M151 437 q38 25 107 25 q88 0 140 -60.5 q52 -60.5 52 -167.5 q0 -107 -54.5 -175.5 q-54.5 -68.5 -146.5 -68.5 q-51 0 -99 29 l0 -13 l-102 0 l0 603 l102 0 l1 -172 ZM247 87 q47 0 73.5 40.5 q26.5 40.5 26.5 105.5 q0 65 -24.5 98 q-24.5 33 -70.5 33 q-46 0 -73 -38 q-27 -38 -27 -101 q0 -63 27 -100.5 q27 -37.5 68 -37.5 Z" /><glyph glyph-name="" unicode="c" d="M445 183 q-24 -95 -65.5 -144 q-41.5 -49 -131.5 -49 q-90 0 -144 63.5 q-54 63.5 -54 172.5 q0 109 54.5 172.5 q54.5 63.5 152.5 63.5 q158 0 184 -188 l-101 0 q-13 48 -30.5 69.5 q-17.5 21.5 -53.5 21.5 q-51 0 -78 -36 q-27 -36 -27 -102.5 q0 -66.5 26.5 -103 q26.5 -36.5 77.5 -36.5 q36 0 54 22.5 q18 22.5 28 73.5 l108 0 Z" /><glyph glyph-name="" unicode="e" d="M466 164 q-30 -88 -79.5 -130 q-49.5 -42 -143.5 -42 q-94 0 -147.5 61 q-53.5 61 -53.5 171.5 q0 110.5 55 174.5 q55 64 152 64 q192 0 203 -278 l-305 0 q15 -96 99 -96 q44 0 69.5 18 q25.5 18 43.5 57 l107 0 ZM337 280 q-21 87 -92 87 q-33 0 -59.5 -23.5 q-26.5 -23.5 -36.5 -63.5 l188 0 Z" /><glyph glyph-name="" unicode="i" d="M66 1 l0 435 l103 0 l0 -435 l-103 0 ZM117 605 q26 0 45 -18.5 q19 -18.5 19 -44.5 q0 -26 -19 -45 q-19 -19 -45 -19 q-26 0 -45 19 q-19 19 -19 45 q0 26 19 44.5 q19 18.5 45 18.5 Z" /><glyph glyph-name="" unicode="j" d="M195 -26 q0 -38 -4.5 -62 q-4.5 -24 -22 -37.5 q-17.5 -13.5 -51.5 -19 q-34 -5.5 -93 -5.5 l0 98 q23 0 36.5 0 q13.5 0 20.5 3 q7 3 9 9.5 q2 6.5 2 18.5 l0 453 l103 0 l0 -458 ZM142 605 q26 0 45 -18.5 q19 -18.5 19 -44.5 q0 -26 -19 -45 q-19 -19 -45 -19 q-26 0 -45 19 q-19 19 -19 45 q0 26 19 44.5 q19 18.5 45 18.5 Z" /><glyph glyph-name="" unicode="l" d="M179 0 l-102 0 l0 604 l102 0 l0 -604 Z" /><glyph glyph-name="" unicode="m" d="M678 -1 l-102 0 l0 277 q0 80 -68 80 q-36 0 -58 -19 q-22 -19 -22 -49 l0 -289 l-101 0 l0 288 q0 32 -15.5 50.5 q-15.5 18.5 -46.5 18.5 q-31 0 -58.5 -34 q-27.5 -34 -27.5 -89 l0 -234 l-102 0 l0 448 l102 0 l0 -18 q40 26 96 26 q68 0 105 -47 q42 47 137 47 q69 0 115 -45 q46 -45 46 -114 l0 -297 Z" /><glyph glyph-name="" unicode="p" d="M154 438 q37 23 98 23 q201 0 201 -241 q0 -99 -56 -165 q-56 -66 -136 -66 q-63 0 -107 27 l0 -155 l-103 0 l0 591 l103 0 l0 -14 ZM255 87 q45 0 70 37.5 q25 37.5 25 98.5 q0 141 -100 141 q-41 0 -68 -37.5 q-27 -37.5 -27 -100 q0 -62.5 26.5 -101 q26.5 -38.5 73.5 -38.5 Z" /><glyph glyph-name="" unicode="r" d="M306 356 l-50 0 q-33 0 -59.5 -28.5 q-26.5 -28.5 -26.5 -65.5 l0 -262 l-103 0 l0 449 l103 0 l0 -18 q36 20 136 30 l0 -105 Z" /><glyph glyph-name="" unicode="t" d="M300 -2 q-55 -9 -73 -9 q-56 0 -78 25 q-22 25 -22 84 l0 258 l-59 0 l0 96 l59 0 l0 121 l102 0 l0 -121 l71 0 l0 -96 l-71 0 l0 -244 q0 -11 8 -18.5 q8 -7.5 21 -7.5 l42 0 l0 -88 Z" /><glyph glyph-name="" unicode="u" d="M436 -11 l-102 0 l0 28 q-46 -28 -115 -28 q-69 0 -112 43.5 q-43 43.5 -43 115.5 l0 304 l102 0 l0 -292 q0 -73 69 -73 q41 0 70 32.5 q29 32.5 29 79.5 l0 253 l102 0 l0 -463 Z" /><glyph glyph-name="" unicode="v" d="M479 464 l-190 -464 l-76 0 l-177 464 l109 0 l108 -290 l115 290 l111 0 Z" /><glyph glyph-name="" unicode="x" d="M471 1 l-119 0 l-104 149 l-104 -149 l-118 0 l162 233 l-152 216 l118 0 l94 -133 l93 133 l119 0 l-153 -216 l164 -233 Z" /><glyph glyph-name="" unicode="y" d="M473 450 l-148 -409 q-30 -82 -54.5 -120 q-24.5 -38 -49.5 -49 q-25 -11 -53 -11 q-28 0 -71 6 l0 102 q48 -9 63 -9 q15 0 27 12.5 q12 12.5 28 55.5 l-158 422 l107 0 l104 -277 l97 277 l108 0 Z" /><glyph glyph-name="" unicode="&#x3002;" d="M312 25 q0 -25 -9.5 -46 q-9.5 -21 -25.5 -36 q-16 -15 -36.5 -23 q-20.5 -8 -42.5 -8 q-26 0 -46.5 9 q-20.5 9 -35.5 24 q-15 15 -23 35.5 q-8 20.5 -8 44.5 q0 50 32 82 q32 32 81 32 q24 0 45 -9 q21 -9 36.5 -24.5 q15.5 -15.5 24 -36 q8.5 -20.5 8.5 -44.5 ZM249 25 q0 21 -14.5 36 q-14.5 15 -36.5 15 q-21 0 -35.5 -14.5 q-14.5 -14.5 -14.5 -36.5 q0 -22 13 -36 q13 -14 37 -14 q26 0 38.5 14 q12.5 14 12.5 36 Z" /><glyph glyph-name="" unicode="&#x7f16;" d="M480 638 q-8 20 -27 62 l102 25 q24 -49 36 -87 l183 0 l0 -243 l-394 0 l0 -45 l409 0 l0 -316 q0 -57 -9.5 -80 q-9.5 -23 -32 -29 q-22.5 -6 -78.5 -6 l-8 39 l-67 0 l0 145 l-37 0 l0 -148 l-77 0 l0 148 l-31 0 l0 -186 l-85 0 l0 257 q-31 -162 -90 -251 l-91 44 q26 39 46 85 q-171 -48 -196 -56 l-23 99 q92 17 226 53 l-3 -87 q52 123 52 320 l0 98 q-50 -98 -110 -190 l82 18 l-4 -91 l-121 -24 q-27 -5 -77 -23 l-34 97 q39 11 49 24 l67 100 l-29 -2 q-47 -6 -78 -18 l-26 92 q31 6 40 20.5 q9 14.5 44.5 87.5 q35.5 73 58.5 144 l88 -26 q-49 -125 -97 -209 l50 3 q16 34 29 65 l68 -29 l0 120 l195 0 ZM677 481 l0 72 l-297 0 l0 -72 l297 0 ZM672 185 l30 0 l0 79 l-30 0 l0 -79 ZM557 185 l37 0 l0 79 l-37 0 l0 -79 ZM449 185 l31 0 l0 79 l-31 0 l0 -79 ZM702 103 l-30 0 l0 -90 q6 -1 18 -1 q12 0 12 25 l0 66 Z" /><glyph glyph-name="" unicode="&#x63d2;" d="M110 469 l-92 0 l0 90 l92 0 l0 155 l97 0 l0 -155 l62 0 l0 -90 l-62 0 l0 -124 l54 16 l12 -93 q-25 -7 -66 -20 l0 -235 q0 -45 -18.5 -67 q-18.5 -22 -92.5 -22 q-25 0 -59 1 l-22 94 q52 -4 67 -4 q15 0 21.5 6.5 q6.5 6.5 6.5 24.5 l0 173 l-86 -25 l-23 97 q41 9 109 27 l0 151 ZM492 444 l-210 0 l0 87 l210 0 l0 73 q-113 -4 -176 -5 l-12 87 q257 -5 460 21 l15 -83 l-194 -15 l0 -78 l229 0 l0 -87 l-229 0 l0 -401 l115 0 l0 91 l-93 0 l0 84 l93 0 l0 82 l-97 0 l0 89 l188 0 l0 -469 l-91 0 l0 37 l-325 0 l0 -39 l-92 0 l0 459 q76 6 158 40 l41 -80 q-46 -21 -107 -34 l0 -86 l94 0 l0 -84 l-94 0 l0 -90 l117 0 l0 401 Z" /><glyph glyph-name="" unicode="&#x4ea7;" d="M265 531 l-218 0 l0 89 l322 0 q-11 24 -38 76 l110 28 q26 -46 46 -104 l308 0 l0 -89 l-205 0 l78 -22 q-21 -46 -55 -109 l185 0 l0 -89 l-611 0 l0 -61 q0 -198 -87 -334 l-95 47 q77 123 77 295 l0 142 l164 0 q-26 55 -57 105 l76 26 ZM557 531 l-262 0 q43 -73 73 -131 l128 0 q39 71 61 131 Z" /><glyph glyph-name="" unicode="&#x5e38;" d="M360 592 l0 125 l100 0 l0 -125 l68 0 q39 52 73 108 l85 -39 q-26 -40 -46 -69 l145 0 l0 -193 l-101 0 l0 106 l-549 0 l0 -113 l-101 0 l0 200 l144 0 l-52 62 l79 43 q60 -66 89 -105 l66 0 ZM457 129 l0 -213 l-95 0 l0 213 l-177 0 l0 -150 l-95 0 l0 244 l272 0 l0 43 l-197 0 l0 197 l496 0 l0 -197 l-204 0 l0 -43 l273 0 l0 -145 q0 -65 -34 -90.5 q-34 -25.5 -144 -20.5 l-21 92 q42 -3 72.5 -3 q30.5 0 30.5 31 l0 42 l-177 0 ZM562 343 l0 43 l-298 0 l0 -43 l298 0 Z" /><glyph glyph-name="" unicode="&#x6210;" d="M662 575 l-74 85 l76 53 q47 -45 95 -104 l-62 -34 l112 0 l0 -92 l-255 0 q9 -139 33 -239 q61 97 94 218 l94 -29 q-67 -199 -149 -311 q39 -89 62 -89 q8 0 14.5 11.5 q6.5 11.5 9.5 32.5 l7 56 l98 -28 q-18 -112 -45.5 -150 q-27.5 -38 -64.5 -38 q-37 0 -76 22.5 q-39 22.5 -79 95.5 q-61 -63 -139 -118 l-80 72 q105 73 176 150 q-11 26 -29 121.5 q-18 95.5 -26 222.5 l-259 0 l0 -84 l201 0 l-2 -241 q-1 -59 -30.5 -85 q-29.5 -26 -92.5 -26 q-18 0 -64 2 l-21 98 q37 -4 65.5 -4 q28.5 0 37 8 q8.5 8 8.5 29 l2 127 l-105 0 q-5 -228 -85 -391 l-104 38 q56 94 73 185.5 q17 91.5 17 226.5 l0 209 l356 0 q-2 43 -4 136 l100 0 q0 -54 2 -136 l113 0 Z" /><glyph glyph-name="" unicode="&#x7a0b;" d="M144 586 l-99 -7 l-23 99 q151 2 303 29 l25 -95 q-51 -9 -104 -15 l0 -109 l101 0 l0 -92 l-101 0 l0 -65 l26 20 q46 -55 97 -120 l-73 -51 l-50 65 l0 -328 l-102 0 l0 309 q-25 -67 -64 -123 l-77 66 q77 107 116 227 l-98 0 l0 92 l123 0 l0 98 ZM776 420 l-402 0 l0 265 l402 0 l0 -265 ZM674 509 l0 85 l-197 0 l0 -85 l197 0 ZM524 274 l-180 0 l0 90 l461 0 l0 -90 l-177 0 l0 -65 l155 0 l0 -90 l-155 0 l0 -88 l187 0 l0 -90 l-506 0 l0 90 l215 0 l0 88 l-157 0 l0 90 l157 0 l0 65 Z" /><glyph glyph-name="" unicode="&#x6b21;" d="M407 501 q-30 -90 -70 -177 l-103 41 q79 145 130 362 l107 -25 q-22 -74 -31 -102 l365 0 l0 -83 l-71 -185 l-104 22 l57 147 l-280 0 ZM227 474 l-95 -49 q-52 108 -120 218 l90 47 l125 -216 ZM522 213 q-65 -180 -262 -303 l-80 85 q147 87 214 197 q67 110 72 278 l104 0 q-3 -57 -10 -99 q77 -243 259 -367 l-81 -86 q-138 107 -216 295 ZM220 306 q-48 -179 -111 -364 l-97 32 q60 162 108 360 l100 -28 Z" /><glyph glyph-name="" unicode="&#x5927;" d="M348 418 l-313 0 l0 97 l321 0 q6 93 6 192 l103 0 q0 -101 -6 -192 l324 0 l0 -97 l-321 0 q83 -296 352 -415 l-73 -92 q-224 110 -326 353 q-76 -216 -336 -355 l-66 88 q161 87 238.5 183.5 q77.5 96.5 96.5 237.5 Z" /><glyph glyph-name="" unicode="&#x5f53;" d="M353 456 l0 258 l111 0 l0 -258 l287 0 l0 -541 l-114 0 l0 45 l-593 0 l0 98 l593 0 l0 103 l-549 0 l0 97 l549 0 l0 100 l-593 0 l0 98 l309 0 ZM278 534 l-81 -68 q-88 102 -148 158 l78 64 q88 -83 151 -154 ZM768 616 q-72 -75 -162 -153 l-74 71 q82 62 158 147 l78 -65 Z" /><glyph glyph-name="" unicode="&#x5f97;" d="M278 677 q-74 -101 -198 -220 l-68 67 q105 90 186 200 l80 -47 ZM746 388 l-439 0 l0 296 l439 0 l0 -296 ZM644 572 l0 34 l-235 0 l0 -34 l235 0 ZM409 500 l0 -34 l235 0 l0 34 l-235 0 ZM217 372 l0 -456 l-98 0 l0 323 l-39 -45 l-74 69 q95 92 180 249 l87 -45 q-32 -58 -56 -95 ZM592 274 l-321 0 l0 81 l520 0 l0 -81 l-98 0 l0 -40 l118 0 l0 -82 l-118 0 l0 -117 q0 -41 -11.5 -66.5 q-11.5 -25.5 -35 -37.5 q-23.5 -12 -53.5 -13.5 q-30 -1.5 -81 -1.5 l-23 99 q49 -2 67 -2 q36 0 36 34 l0 105 l-190 0 q39 -37 108 -106 l-76 -58 q-62 75 -116 122 l51 42 l-114 0 l0 82 l337 0 l0 40 Z" /><glyph glyph-name="" unicode="&#x7684;" d="M253 567 l131 0 l0 -145 q69 137 114 288 l103 -23 q-16 -54 -34 -106 l210 0 l-6 -385 q-3 -145 -7 -172 q-7 -39 -25 -59 q-18 -20 -54.5 -27.5 q-36.5 -7.5 -152.5 -7.5 l-34 109 q61 -5 98.5 -5 q37.5 0 51.5 10 q14 10 17.5 30 q3.5 20 5.5 154 q2 134 1 262 l-142 0 q-19 -46 -63 -126 l-83 32 l0 -458 l-100 0 l0 58 l-130 0 l0 -65 l-100 0 l0 636 l92 0 q20 59 40 146 l106 -16 q-23 -79 -39 -130 ZM154 327 l130 0 l0 146 l-130 0 l0 -146 ZM284 235 l-130 0 l0 -147 l130 0 l0 147 ZM635 195 l-83 -51 q-62 95 -126 174 l81 49 q64 -81 128 -172 Z" /><glyph glyph-name="" unicode="&#x5730;" d="M106 402 l-89 0 l0 93 l89 0 l0 217 l98 0 l0 -217 l85 0 l0 -85 l32 11 l0 207 l97 0 l0 -173 l71 24 l0 233 l98 0 l0 -199 l186 64 l-17 -293 q-5 -77 -27 -105 q-22 -28 -67 -28 q-27 0 -46 1 l-24 100 q22 -3 39 -3 q17 0 23 5.5 q6 5.5 8 31.5 l10 158 l-85 -31 l0 -342 l-98 0 l0 307 l-71 -24 l0 -287 q0 -30 32 -30 l226 0 q25 0 30.5 12 q5.5 12 23.5 103 l90 -36 q-20 -102 -28 -125 q-8 -23 -33 -36.5 q-25 -13.5 -80 -13.5 l-244 0 q-64 0 -89 27.5 q-25 27.5 -25 89.5 l0 261 l-56 -20 l-28 93 l30 10 l-63 0 l0 -224 q56 19 80 28 l16 -97 q-153 -49 -271 -90 l-27 97 q68 21 104 31 l0 255 Z" /><glyph glyph-name="" unicode="&#x52a8;" d="M130 359 l-118 0 l0 92 l389 0 l0 -92 l-170 0 q-28 -89 -81 -225 l132 14 q-20 60 -51 134 l89 32 q46 -110 82 -228 q40 67 59 154.5 q19 87.5 25 235.5 l-96 0 l0 92 l99 0 l0 144 l99 0 q0 -91 -1 -144 l197 0 l-11 -511 q-3 -69 -28 -90.5 q-25 -21.5 -63.5 -24 q-38.5 -2.5 -132.5 -2.5 l-26 106 q28 -3 101 -3 q26 0 37 10 q11 10 12 39 l11 384 l-100 0 q-7 -203 -44.5 -329 q-37.5 -126 -126.5 -236 l-96 64 q36 39 62 75 l-61 -14 l-7 27 l-184 -24 q-43 -5 -82 -26 l-35 101 q30 6 38.5 22 q8.5 16 35 81 q26.5 65 46.5 142 ZM362 558 l-312 0 l0 93 l312 0 l0 -93 Z" /><glyph glyph-name="" unicode="&#x7aef;" d="M231 587 l-98 -18 q-15 62 -39 128 l96 26 l41 -136 ZM510 553 l0 160 l96 0 l0 -160 l81 0 l0 119 l93 0 l0 -203 l-450 0 l0 204 l94 0 l0 -120 l86 0 ZM300 479 l-278 0 l0 87 l278 0 l0 -87 ZM150 133 l-73 -12 q-19 162 -45 311 l85 14 q24 -150 40 -281 q29 140 43 274 l85 -14 q-26 -167 -57 -312 q32 7 77 20 l-4 -100 l-273 -58 l-22 99 q70 10 135 21 l9 38 ZM498 344 l-192 0 l0 85 l503 0 l0 -85 l-213 0 l-11 -49 l201 0 l0 -264 q0 -53 -11 -77.5 q-11 -24.5 -33 -30 q-22 -5.5 -86 -5.5 l-9 35 l-75 0 l0 259 l-40 0 l0 -260 l-81 0 l0 260 l-38 0 l0 -293 l-92 0 l0 376 l166 0 l11 49 ZM654 212 l0 -208 q27 0 33 3 q6 3 6 25 l0 180 l-39 0 Z" /><glyph glyph-name="" unicode="&#x53d1;" d="M601 541 q-53 61 -106 108 l77 57 q47 -44 115 -117 l-65 -48 l169 0 l0 -93 l-424 0 q-5 -23 -19 -65 l381 0 q-50 -154 -163 -264 q106 -68 240 -96 l-54 -101 q-159 47 -269 130 q-120 -82 -290 -135 l-56 88 q165 48 270 113 q-62 62 -111 143 q-62 -122 -204 -275 l-85 64 q105 103 164 195.5 q59 92.5 92 202.5 l-222 0 l59 248 l101 -14 l-32 -141 l119 0 q18 71 34 176 l98 -8 q-9 -81 -30 -168 l211 0 ZM488 178 q57 47 96 114 l-200 0 q52 -67 104 -114 Z" /><glyph glyph-name="" unicode="&#x70e6;" d="M222 424 q34 80 47 145 l83 -25 q-31 -111 -73 -204 l-59 23 q-1 -51 -8 -104 q62 -83 136 -194 l-92 -56 q-28 59 -68 121 q-30 -113 -101 -219 l-86 58 q69 91 97.5 189.5 q28.5 98.5 28.5 291.5 l0 263 l95 0 l0 -289 ZM517 598 l-174 0 l0 85 l468 0 l0 -85 l-190 0 l-17 -76 l182 0 l0 -383 l-96 0 l0 296 l-239 0 l0 -306 l-96 0 l0 393 l144 0 q10 36 18 76 ZM111 549 q-8 -123 -23 -243 l-83 14 q21 115 25 238 l81 -9 ZM617 410 l1 -137 q0 -149 -64 -226.5 q-64 -77.5 -198 -134.5 l-62 88 q97 40 145 74 q48 34 66 78.5 q18 44.5 18 118.5 l0 139 l94 0 ZM819 -17 l-74 -74 q-91 92 -169 159 l69 68 q93 -80 174 -153 Z" /><glyph glyph-name="" unicode="&#x975e;" d="M566 582 l228 0 l0 -91 l-228 0 l0 -107 l218 0 l0 -92 l-218 0 l0 -106 l239 0 l0 -91 l-239 0 l0 -176 l-102 0 l0 792 l102 0 l0 -129 ZM246 491 l-222 0 l0 91 l222 0 l0 124 l102 0 l0 -786 l-102 0 l0 173 l-232 0 l0 91 l232 0 l0 108 l-204 0 l0 92 l204 0 l0 107 Z" /><glyph glyph-name="" unicode="&#x4e2a;" d="M412 560 q-142 -174 -338 -281 l-67 86 q255 136 389 352 l92 -46 l-20 -33 q64 -78 158 -148.5 q94 -70.5 183 -108.5 l-68 -98 q-204 105 -329 277 ZM464 -80 l-106 0 l0 491 l106 0 l0 -491 Z" /><glyph glyph-name="" unicode="&#x679c;" d="M356 271 l0 53 l-273 0 l0 360 l651 0 l0 -360 l-272 0 l0 -53 l346 0 l0 -91 l-299 0 q130 -97 310 -131 l-43 -92 q-181 44 -314 160 l0 -199 l-106 0 l0 192 q-114 -94 -295 -156 l-57 93 q196 41 310 133 l-305 0 l0 91 l347 0 ZM356 547 l0 50 l-169 0 l0 -50 l169 0 ZM462 597 l0 -50 l168 0 l0 50 l-168 0 ZM462 464 l0 -53 l168 0 l0 53 l-168 0 ZM356 411 l0 53 l-169 0 l0 -53 l169 0 Z" /><glyph glyph-name="" unicode="&#x5316;" d="M145 315 q-35 -55 -60 -91 l-85 79 q144 179 214 414 l108 -24 q-37 -104 -74 -184 l0 -582 l-103 0 l0 388 ZM533 397 q104 85 198 194 l78 -68 q-128 -139 -276 -252 l0 -204 q0 -20 9 -28 q9 -8 30 -8 l75 0 q29 0 41 6 q12 6 16 17 q4 11 10.5 45 q6.5 34 8.5 58 l99 -35 q-24 -143 -59.5 -162 q-35.5 -19 -101.5 -19 l-100 0 q-81 0 -106.5 28 q-25.5 28 -25.5 97 l0 129 q-53 -36 -109 -70 l-61 95 q113 59 170 99 l0 386 l104 0 l0 -308 Z" /><glyph glyph-name="" unicode="&#x6362;" d="M302 422 l-62 41 q3 4 5 5 l-40 0 l0 -120 q35 10 66 20 l12 -93 q-65 -16 -78 -20 l0 -235 q0 -44 -18.5 -67 q-18.5 -23 -101.5 -23 q-27 0 -47 2 l-20 96 q39 -3 58 -3 q19 0 25.5 6 q6.5 6 6.5 24 l0 174 l-86 -26 l-22 94 q28 5 108 26 l0 145 l-83 0 l0 90 l83 0 l0 155 l97 0 l0 -155 l68 0 l0 -60 q87 93 158 218 l89 -39 l-22 -35 l234 0 l0 -75 l-83 -86 l103 0 l0 -250 l52 0 l0 -87 l-191 0 q72 -103 205 -146 l-58 -87 q-150 64 -229 204 q-62 -130 -238 -206 l-63 82 q159 65 208 153 l-189 0 l0 87 l53 0 l0 191 ZM440 555 q-29 -40 -59 -74 l147 0 l72 74 l-160 0 ZM481 394 l-81 0 l0 -163 l69 0 q12 68 12 163 ZM652 231 l0 163 l-77 0 q1 -98 -9 -163 l86 0 Z" /><glyph glyph-name="" unicode="&#x4f1a;" d="M471 670 q138 -151 346 -219 l-59 -91 q-86 36 -142 69 l0 -81 l-424 0 l0 76 q-62 -41 -134 -76 l-57 92 q273 120 386 288 l98 -41 q-6 -9 -14 -17 ZM596 441 q-96 61 -186 159 q-80 -83 -191 -159 l377 0 ZM238 184 l-194 0 l0 96 l732 0 l0 -96 l-198 0 q81 -95 182 -224 l-90 -56 q-22 33 -48 66 l-378 -28 q-61 -4 -124 -22 l-42 111 q38 8 53 21 q15 13 49 53.5 q34 40.5 58 78.5 ZM574 184 l-212 0 q-54 -78 -118 -147 l313 17 l-66 77 l83 53 Z" /><glyph glyph-name="" unicode="&#x6216;" d="M654 586 q-25 33 -60 74 l73 50 l85 -101 l-37 -23 l87 0 l0 -92 l-240 0 q6 -139 32 -245 q47 89 75 205 l101 -28 q-58 -193 -137 -304 q10 -27 23 -48.5 q13 -21.5 22.5 -34.5 q9.5 -13 13.5 -13 q20 0 32 113 l91 -30 q-22 -134 -48.5 -164.5 q-26.5 -30.5 -61.5 -30.5 q-73 0 -141 124 q-72 -78 -151 -126 l-83 70 q42 26 72 49 l-377 -64 l-18 98 q211 25 422 61 l-5 -79 q55 43 97 94 q-42 129 -55 353 l-456 0 l0 92 l452 0 l-2 127 l98 0 q0 -95 1 -127 l95 0 ZM410 157 l-342 0 l0 281 l342 0 l0 -281 ZM310 248 l0 100 l-141 0 l0 -100 l141 0 Z" /><glyph glyph-name="" unicode="&#x6781;" d="M375 595 l-70 0 l0 90 l448 0 l0 -60 l-91 -179 l137 0 q-42 -208 -128 -324 q61 -65 149 -113 l-75 -87 q-78 55 -141 120 q-53 -56 -159 -124 l-68 82 q97 52 160 119 q-46 65 -85 156 q-33 -204 -152 -356 l-72 42 l0 -45 l-94 0 l0 326 q-26 -56 -56 -103 l-79 72 q78 112 122 244 l-107 0 l0 94 l120 0 l0 162 l94 0 l0 -162 l85 0 l0 -94 l-85 0 l0 -72 l37 28 q43 -48 91 -112 q19 117 19 296 ZM605 201 q46 66 75 153 l-73 0 q-30 0 -53 -11 l-32 93 q36 9 48 32 l64 127 l-162 0 q1 -44 -1 -117 q48 -164 134 -277 ZM228 -5 q96 129 124 282 l-60 -53 l-64 86 l0 -315 Z" /><glyph glyph-name="" unicode="&#x8ba1;" d="M266 521 l-106 -46 q-42 97 -99 194 l99 48 q44 -76 106 -196 ZM605 439 l199 0 l0 -97 l-199 0 l0 -422 l-108 0 l0 422 l-192 0 l0 97 l192 0 l0 275 l108 0 l0 -275 ZM372 99 l-124 -94 q-35 -27 -92 -86 l-70 81 q38 25 38 49 l0 287 l-113 0 l0 95 l211 0 l0 -323 l116 99 l34 -108 Z" /><glyph glyph-name="" unicode="&#x9645;" d="M333 684 l-77 -284 q66 -66 66 -171 q0 -78 -32 -123 q-32 -45 -88 -45 q-27 0 -44 1 l-19 99 q18 -3 35 -3 q52 0 52 80 q0 37 -17 76 q-17 39 -49 66 l49 212 l-74 0 l0 -674 l-99 0 l0 766 l297 0 ZM747 575 l-364 0 l0 94 l364 0 l0 -94 ZM512 363 l-182 0 l0 93 l474 0 l0 -93 l-191 0 l0 -334 q0 -67 -28 -86 q-28 -19 -76 -19 q-48 0 -63 1 l-24 95 q18 -1 46 -1 q28 0 36 8 q8 8 8 29 l0 307 ZM471 266 q-43 -158 -97 -276 l-95 31 q65 121 100 270 l92 -25 ZM813 23 l-96 -30 q-31 119 -83 269 l93 26 q77 -234 86 -265 Z" /><glyph glyph-name="" unicode="&#x5bb6;" d="M481 634 l300 0 l0 -187 l-98 0 l0 97 l-543 0 l0 -97 l-99 0 l0 187 l320 0 q-19 52 -28 71 l114 16 q14 -32 34 -87 ZM308 422 l-134 0 l0 85 l474 0 l0 -85 l-198 0 q-25 -20 -41 -30 q44 -44 67 -93 q115 52 214 122 l62 -78 q-80 -51 -130 -78 q66 -151 189 -218 l-70 -80 q-123 73 -198 259 l-34 -15 q14 -56 14 -138 q0 -82 -40.5 -115.5 q-40.5 -33.5 -108.5 -33.5 q-68 0 -93 1 l-27 95 q53 -6 92 -6 q39 0 59.5 16.5 q20.5 16.5 20.5 61.5 q0 15 -4 47 q-134 -114 -367 -202 l-48 80 q224 65 390 208 q-1 4 -11 25 q-121 -90 -317 -164 l-47 78 q206 70 323 156 q-2 4 -17 23 q-93 -54 -261 -112 l-49 82 q170 42 290 109 Z" /><glyph glyph-name="" unicode="&#x7b80;" d="M487 467 l273 0 l0 -432 q0 -55 -24.5 -84 q-24.5 -29 -75 -32.5 q-50.5 -3.5 -113.5 -1.5 l-26 91 q31 -3 70 -3 q39 0 52.5 10.5 q13.5 10.5 13.5 36.5 l0 328 l-349 0 l0 87 l175 0 l-92 40 q69 92 120 213 l100 -34 q-9 -21 -18 -39 l209 0 l0 -83 l-108 0 q12 -18 37 -60 l-101 -35 q-21 39 -55 95 l-25 0 q-26 -46 -63 -97 ZM209 564 l-38 0 q-24 -47 -70 -114 l-92 40 q70 90 125 229 l100 -29 l-20 -43 l213 0 l0 -83 l-104 0 l36 -67 l-100 -29 q-20 42 -50 96 ZM283 394 l-84 -45 q-32 60 -73 106 l80 47 q31 -41 77 -108 ZM167 -82 l-102 0 l0 469 l102 0 l0 -469 ZM585 19 l-344 0 l0 324 l344 0 l0 -324 ZM337 218 l152 0 l0 45 l-152 0 l0 -45 ZM489 144 l-152 0 l0 -45 l152 0 l0 45 Z" /><glyph glyph-name="" unicode="&#x4ef6;" d="M415 539 l88 0 l0 173 l101 0 l0 -173 l174 0 l0 -92 l-174 0 l0 -167 l208 0 l0 -93 l-208 0 l0 -270 l-101 0 l0 270 l-247 0 l0 93 l247 0 l0 167 l-119 0 q-20 -54 -45 -104 l-89 38 q77 154 103 297 l91 -24 q-18 -74 -29 -115 ZM126 305 q-17 -28 -44 -64 l-79 76 q53 71 105 180.5 q52 109.5 82 213.5 l106 -25 q-25 -89 -69 -191 l0 -577 l-101 0 l0 387 Z" /><glyph glyph-name="" unicode="&#x63a5;" d="M500 630 q-8 25 -28 71 l108 20 q13 -34 31 -91 l173 0 l0 -84 l-462 0 l0 84 l178 0 ZM113 469 l-89 0 l0 90 l89 0 l0 152 l97 0 l0 -152 l77 0 l0 -90 l-77 0 l0 -123 q32 8 71 20 l12 -97 q-42 -10 -83 -21 l0 -235 q0 -54 -24 -71.5 q-24 -17.5 -73 -17.5 q-49 0 -73 1 l-19 96 l57 -3 q22 0 28.5 6 q6.5 6 6.5 24 l0 173 q-58 -16 -86 -25 l-22 99 q40 8 108 25 l0 149 ZM596 451 q25 41 46 90 l101 -25 q-15 -30 -36 -65 l102 0 l0 -84 l-510 0 l0 84 l95 0 q-18 31 -39 60 l94 30 q36 -52 58 -90 l89 0 ZM378 212 l-74 0 l0 84 l121 0 q18 34 33 68 l102 -28 q-7 -15 -21 -40 l263 0 l0 -84 l-74 0 q-34 -76 -86 -129 l165 -86 l-69 -78 l-182 96 q-93 -56 -262 -95 l-47 92 q124 18 206 53 q-58 26 -139 57 q26 31 64 90 ZM629 212 l-137 0 q-10 -16 -32 -49 q68 -26 96 -39 q50 41 73 88 Z" /><glyph glyph-name="" unicode="&#x89c9;" d="M371 592 q-17 37 -52 96 l94 33 q38 -67 68 -129 l62 0 q41 66 70 128 l94 -36 l-55 -92 l123 0 l0 -169 l-96 0 l0 75 l-538 0 l0 -76 l-97 0 l0 170 l103 0 q-15 28 -47 82 l90 38 q31 -50 69 -120 l112 0 ZM674 116 l-100 0 l0 227 l-328 0 l0 -228 l-100 0 l0 320 l528 0 l0 -319 ZM414 106 q-86 -140 -360 -190 l-40 97 q182 27 267.5 91 q85.5 64 85.5 203 l101 -1 q-1 -55 -14 -105 l64 0 l0 -135 q0 -20 8.5 -27.5 q8.5 -7.5 30.5 -7.5 l87 0 q28 0 40.5 6 q12.5 6 17.5 21 q5 15 15 76 l94 -41 q-18 -89 -30.5 -111 q-12.5 -22 -41 -31.5 q-28.5 -9.5 -82.5 -9.5 l-110 0 q-75 0 -104 23.5 q-29 23.5 -29 87.5 l0 54 Z" /><glyph glyph-name="" unicode="&#x5f00;" d="M204 591 l-160 0 l0 93 l733 0 l0 -93 l-139 0 l0 -217 l170 0 l0 -94 l-170 0 l0 -364 l-110 0 l0 364 l-220 0 q-9 -115 -55.5 -197 q-46.5 -82 -155.5 -169 l-93 72 q96 74 140.5 141.5 q44.5 67.5 52.5 152.5 l-187 0 l0 94 l192 0 q2 107 2 217 ZM528 591 l-214 0 q1 -121 -2 -217 l216 0 l0 217 Z" /><glyph glyph-name="" unicode="&#x5e93;" d="M410 632 l-32 65 l103 27 q22 -40 45 -92 l283 0 l0 -91 l-352 0 l70 -30 q-12 -19 -26 -38 l274 0 l0 -90 l-338 0 l-68 -90 l103 0 l0 74 l94 0 l0 -74 l191 0 l0 -86 l-191 0 l0 -58 l236 0 l0 -89 l-236 0 l0 -144 l-94 0 l0 144 l-283 0 l0 89 l283 0 l0 58 l-89 0 q-74 0 -134 -19 l-32 90 q22 2 38 16 q16 14 74 89 l-118 0 l0 90 l181 0 q14 21 43 68 l-246 0 l0 -215 q0 -244 -94 -414 l-90 51 q44 76 63.5 159.5 q19.5 83.5 19.5 211.5 l0 298 l322 0 Z" /><glyph glyph-name="" unicode="&#x5229;" d="M772 40 q0 -60 -28.5 -88 q-28.5 -28 -86.5 -28 l-104 0 l-26 111 q40 -4 93 -4 q27 0 38 10.5 q11 10.5 11 37.5 l0 634 l103 0 l0 -673 ZM166 382 l-146 0 l0 92 l164 0 l0 101 l-133 -10 l-17 100 q184 7 366 36 l22 -94 q-125 -19 -135 -20 l0 -113 l141 0 l0 -92 l-141 0 l0 -97 l53 45 q46 -45 123 -127 l-78 -64 l-98 108 l0 -327 l-103 0 l0 298 q-41 -84 -107 -156 l-71 71 q104 109 160 249 ZM585 107 l-102 0 l0 519 l102 0 l0 -519 Z" /><glyph glyph-name="" unicode="&#x4e86;" d="M469 39 q0 -64 -27.5 -89.5 q-27.5 -25.5 -87.5 -25.5 l-133 0 l-25 106 q49 -5 111 -5 q27 0 38 10.5 q11 10.5 11 38.5 l0 318 l221 178 l-525 0 l0 96 l715 0 l0 -76 l-298 -247 l0 -304 Z" /><glyph glyph-name="" unicode="&#x5f55;" d="M588 536 l2 56 l-506 0 l0 92 l612 0 l-9 -290 l114 0 l0 -92 l-338 0 l0 -22 q34 -52 84 -97 q89 52 158 114 l61 -69 q-63 -52 -145 -103 q91 -59 187 -85 l-51 -94 q-185 67 -294 202 l0 -119 q0 -66 -28 -85.5 q-28 -19.5 -90.5 -19.5 q-62.5 0 -90.5 1 l-23 99 q40 -4 97 -4 q20 0 28 7.5 q8 7.5 8 30.5 l0 244 l-345 0 l0 92 l564 0 l2 53 l-484 0 l0 89 l487 0 ZM271 216 l-65 -68 q-55 46 -116 87 l63 64 q61 -39 118 -83 ZM351 103 q-146 -58 -302 -128 l-45 89 q162 50 340 130 l7 -91 Z" /><glyph glyph-name="" unicode="&#x7387;" d="M218 297 q-89 -55 -154 -100 l-53 76 q101 52 190 115 l36 -78 q-12 -8 -18 -13 q48 6 74.5 24 q26.5 18 81.5 67 l-57 -2 q-41 -6 -66 -13 l-21 88 q67 13 128 93 l-332 0 l0 90 l332 0 l-23 57 l111 22 q16 -46 25 -79 l320 0 l0 -90 l-319 0 q-40 -50 -89 -94 l67 2 q30 32 46 50 l69 -48 q-87 -98 -187 -167 l107 6 q-7 10 -23 31 l70 43 q46 -59 101 -139 l-79 -43 q-4 9 -21 36 l-210 -12 q-31 -1 -81 -12 l-25 90 ZM773 486 q-67 -52 -149 -106 l-53 70 q76 45 145 97 l57 -61 ZM215 447 l-64 -66 q-71 57 -125 91 l55 67 q35 -22 134 -92 ZM800 294 l-46 -76 q-62 40 -160 93 l51 70 q99 -55 155 -87 ZM462 151 l347 0 l0 -92 l-347 0 l0 -140 l-105 0 l0 140 l-347 0 l0 92 l347 0 l0 56 l105 0 l0 -56 Z" /><glyph glyph-name="" unicode="&#x9ebb;" d="M375 444 l69 0 l0 -89 l-69 0 l0 -54 l30 22 q40 -53 76 -104 l-66 -56 q-23 37 -40 60 l0 -307 l-94 0 l0 232 q-27 -69 -65 -130 l-63 51 q-20 -81 -52 -155 l-95 39 q43 89 61 172 q18 83 18 194 l0 326 l318 0 q-5 18 -19 60 l112 15 q8 -29 24 -75 l273 0 l0 -90 l-613 0 l0 -243 q0 -101 -15 -186 q64 101 103 229 l-76 0 l0 89 l89 0 l0 94 l94 0 l0 -94 ZM541 354 l-84 0 l0 88 l99 0 l0 97 l95 0 l0 -97 l117 0 l0 -88 l-95 0 q49 -160 143 -273 l-75 -71 q-64 101 -90 183 l0 -277 l-95 0 l0 267 q-29 -88 -91 -179 l-85 60 q105 125 161 290 Z" /><glyph glyph-name="" unicode="&#x6bcf;" d="M212 555 l-33 -48 l533 0 l-7 -190 l95 0 l0 -87 l-98 0 q-1 -36 -4 -97 l86 0 l0 -87 l-88 0 q-3 -52 -18 -78 q-15 -26 -48.5 -35.5 q-33.5 -9.5 -61 -9 q-27.5 0.5 -98.5 -0.5 l-18 91 q45 -4 78.5 -4 q33.5 0 44.5 8.5 q11 8.5 14 27.5 l-492 0 l23 184 l-109 0 l0 87 l119 0 l19 149 q-15 -20 -46 -55 l-87 53 q122 134 177 250 l95 -32 q-12 -24 -23 -40 l506 0 l0 -87 l-559 0 ZM392 317 q-31 33 -64 64 l47 37 l-132 0 l-10 -101 l159 0 ZM606 317 q2 64 2 101 l-184 0 q41 -40 71 -71 l-36 -30 l147 0 ZM427 230 q41 -39 70 -69 l-34 -28 l134 0 q1 5 6 97 l-176 0 ZM224 230 l-10 -97 l177 0 q-30 33 -62 62 l44 35 l-149 0 Z" /><glyph glyph-name="" unicode="&#x5e73;" d="M359 594 l-297 0 l0 90 l696 0 l0 -90 l-295 0 l0 -297 l337 0 l0 -90 l-337 0 l0 -290 l-104 0 l0 290 l-339 0 l0 90 l339 0 l0 297 ZM726 537 q-67 -134 -121 -218 l-89 49 q70 98 114 208 l96 -39 ZM299 371 l-97 -47 q-64 116 -126 201 l93 49 q66 -95 130 -203 Z" /><glyph glyph-name="" unicode="&#x5668;" d="M572 402 q-5 6 -28 26 l51 28 l-161 0 l0 233 l306 0 l0 -233 l-107 0 l57 -54 l119 0 l0 -88 l-273 0 q127 -60 284 -78 l-28 -81 l-55 8 l0 -245 l-93 0 l0 30 l-122 0 l0 -33 l-93 0 l0 281 l171 0 q-103 34 -187 102 q-55 -61 -178 -102 l152 0 l0 -278 l-93 0 l0 30 l-117 0 l0 -32 l-93 0 l0 240 l-47 -9 l-32 87 q186 23 282 80 l-277 0 l0 88 l361 0 q12 28 16 59 l91 -16 q-3 -22 -9 -43 l103 0 ZM645 538 l0 69 l-119 0 l0 -69 l119 0 ZM644 30 l0 85 l-122 0 l0 -85 l122 0 ZM294 30 l0 85 l-117 0 l0 -85 l117 0 ZM383 453 l-302 0 l0 235 l302 0 l0 -235 ZM290 535 l0 71 l-115 0 l0 -71 l115 0 Z" /><glyph glyph-name="" unicode="&#x524d;" d="M200 612 q-13 21 -48 70 l98 40 q38 -52 72 -110 l187 0 q25 43 59 111 l102 -34 l-43 -77 l170 0 l0 -90 l-773 0 l0 90 l176 0 ZM751 29 q0 -68 -28 -86.5 q-28 -18.5 -86 -18.5 q-58 0 -88 1 l-23 99 q72 -4 90 -4 q18 0 26 7.5 q8 7.5 8 30.5 l0 432 l101 0 l0 -461 ZM172 93 l0 -175 l-99 0 l0 551 l337 0 l0 -441 q0 -61 -32.5 -84 q-32.5 -23 -147.5 -19 l-22 95 q25 -4 54.5 -4 q29.5 0 39 7 q9.5 7 9.5 23 l0 47 l-139 0 ZM172 322 l139 0 l0 57 l-139 0 l0 -57 ZM311 236 l-139 0 l0 -58 l139 0 l0 58 ZM580 76 l-100 0 l0 360 l100 0 l0 -360 Z" /><glyph glyph-name="" unicode="&#x5982;" d="M125 557 l26 158 l101 -15 l-27 -143 l174 0 q-10 -280 -89 -413 q61 -49 116 -95 l-67 -78 q-66 59 -105 91 q-58 -71 -166 -151 l-78 77 q104 65 165 139 q-67 54 -131 100 q40 132 63 239 l-97 0 l0 91 l115 0 ZM207 466 q-21 -101 -50 -208 l72 -53 q61 111 65 261 l-87 0 ZM535 8 l0 -90 l-100 0 l0 728 l341 0 l0 -713 l-101 0 l0 75 l-140 0 ZM675 99 l0 454 l-140 0 l0 -454 l140 0 Z" /><glyph glyph-name="" unicode="&#x751f;" d="M392 447 l-209 0 q-31 -68 -66 -129 l-99 42 q97 165 134 322 l103 -24 q-19 -69 -37 -118 l174 0 l0 171 l108 0 l0 -171 l285 0 l0 -93 l-285 0 l0 -147 l249 0 l0 -92 l-249 0 l0 -175 l306 0 l0 -92 l-773 0 l0 92 l359 0 l0 175 l-280 0 l0 92 l280 0 l0 147 Z" /><glyph glyph-name="" unicode="&#x65f6;" d="M721 552 l82 0 l0 -92 l-82 0 l0 -415 q0 -56 -19.5 -82.5 q-19.5 -26.5 -60.5 -32.5 q-41 -6 -151 -6 l-26 103 q60 -4 100 -4 q55 0 55 52 l0 385 l-244 0 l0 92 l244 0 l0 158 l102 0 l0 -158 ZM150 30 l0 -77 l-97 0 l0 690 l302 0 l0 -669 l-96 0 l0 56 l-109 0 ZM259 383 l0 168 l-109 0 l0 -168 l109 0 ZM150 293 l0 -171 l109 0 l0 171 l-109 0 ZM590 182 l-98 -41 q-56 120 -114 214 l94 44 q61 -99 118 -217 Z" /><glyph glyph-name="" unicode="&#x5b9e;" d="M480 632 l297 0 l0 -188 l-100 0 l0 95 l-533 0 l0 -96 l-100 0 l0 189 l313 0 q-11 30 -27 67 l118 18 q18 -40 32 -85 ZM503 147 q-46 -79 -163 -140.5 q-117 -61.5 -288 -93.5 l-42 98 q263 39 371 136 l-351 0 l0 93 l400 0 q29 112 25 277 l98 0 q-3 -198 -19 -277 l259 0 l0 -93 l-290 0 ZM417 426 l-55 -74 q-95 58 -168 92 l54 72 q82 -42 169 -90 ZM334 317 l-56 -71 q-88 54 -188 98 l53 72 q104 -50 191 -99 ZM793 -1 l-69 -79 q-210 127 -241 145 l64 78 l246 -144 Z" /><glyph glyph-name="" unicode="&#x662f;" d="M691 346 l-559 0 l0 331 l559 0 l0 -331 ZM593 555 l0 32 l-363 0 l0 -32 l363 0 ZM230 467 l0 -33 l363 0 l0 33 l-363 0 ZM365 220 l-343 0 l0 91 l769 0 l0 -91 l-328 0 l0 -52 l275 0 l0 -86 l-275 0 l0 -62 q54 -4 131 -4 q77 0 223 9 l-22 -94 q-143 -6 -213 -6 q-171 0 -246 25 q-75 25 -142 89 q-43 -77 -110 -129 l-75 61 q126 96 138 236 l93 -16 q-3 -33 -13 -72 q60 -65 138 -84 l0 185 Z" /><glyph glyph-name="" unicode="&#x7b97;" d="M582 668 l210 0 l0 -78 l-93 0 l28 -33 l-103 -27 q-12 20 -41 60 l-46 0 q-28 -42 -44 -63 l221 0 l0 -345 l-607 0 l0 314 q-6 -7 -20 -21 l-80 52 q100 87 154 195 l92 -21 q-11 -22 -17 -32 l196 0 l0 -74 q48 62 76 125 l91 -20 q-11 -22 -17 -32 ZM429 590 l-96 0 q20 -34 24 -42 l-101 -19 l-32 61 l-37 0 q-25 -37 -50 -63 l333 0 l-70 27 q9 12 29 36 ZM203 426 l415 0 l0 30 l-415 0 l0 -30 ZM618 370 l-415 0 l0 -31 l415 0 l0 31 ZM203 283 l0 -30 l415 0 l0 30 l-415 0 ZM628 134 l181 0 l0 -84 l-181 0 l0 -132 l-96 0 l0 132 l-228 0 q-38 -97 -225 -140 l-53 83 q133 21 168 57 l-184 0 l0 84 l218 0 q2 11 2 39 l94 0 q0 -14 -2 -39 l210 0 l0 39 l96 0 l0 -39 Z" /><glyph glyph-name="" unicode="&#x5b8c;" d="M483 632 l292 0 l0 -198 l-99 0 l0 106 l-532 0 l0 -111 l-100 0 l0 203 l318 0 l-24 65 l114 23 q15 -40 31 -88 ZM634 375 l-445 0 l0 90 l445 0 l0 -90 ZM246 212 l-190 0 l0 91 l717 0 l0 -91 l-222 0 l0 -152 q0 -25 26 -25 l91 0 q22 0 32 12.5 q10 12.5 13 84.5 l96 -22 q-10 -91 -21 -118.5 q-11 -27.5 -36 -39 q-25 -11.5 -69 -11.5 l-131 0 q-60 0 -81.5 23.5 q-21.5 23.5 -21.5 80.5 l0 167 l-104 0 q-8 -118 -67.5 -185.5 q-59.5 -67.5 -199.5 -116.5 l-56 89 q119 32 168.5 79 q49.5 47 55.5 134 Z" /><glyph glyph-name="" unicode="&#x54cd;" d="M452 621 q26 53 40 102 l108 -21 q-16 -41 -34 -81 l212 0 l0 -579 q0 -67 -24.5 -92.5 q-24.5 -25.5 -87.5 -25.5 l-72 0 l-17 96 q45 -4 67.5 -4 q22.5 0 31 8 q8.5 8 8.5 27 l0 478 l-290 0 l0 -610 l-95 0 l0 702 l153 0 ZM132 127 l0 -90 l-93 0 l0 596 l226 0 l0 -569 l-93 0 l0 63 l-40 0 ZM172 218 l0 323 l-40 0 l0 -323 l40 0 ZM649 86 l-220 0 l0 377 l220 0 l0 -377 ZM560 173 l0 204 l-42 0 l0 -204 l42 0 Z" /><glyph glyph-name="" unicode="&#x6548;" d="M455 374 l-64 31 q72 129 113 312 l106 -21 q-17 -63 -34 -113 l225 0 l0 -90 l-66 0 q-17 -222 -89 -344 q61 -77 172 -145 l-68 -90 q-107 77 -165 149 q-63 -73 -174 -152 l-70 75 q125 82 188 161 q-49 90 -74 227 ZM542 493 q-7 -16 -9 -24 q12 -133 54 -224 q42 97 52 248 l-97 0 ZM177 606 l-34 80 l93 31 l48 -111 l137 0 l0 -90 l-399 0 l0 90 l155 0 ZM198 461 q-58 -117 -118 -199 l-78 51 q68 82 115 185 l81 -37 ZM330 326 q-47 86 -81 134 l80 37 q48 -71 115 -187 l-84 -39 q-12 22 -18 32 q-21 -67 -48 -122 q38 -39 99 -107 l-78 -66 q-23 29 -71 83 q-54 -86 -149 -173 l-78 68 q105 82 163 176 q-60 67 -85 92 l70 60 q41 -41 60 -62 q19 45 34 98 l71 -24 Z" /><glyph glyph-name="" unicode="&#x8bb8;" d="M458 603 l317 0 l0 -98 l-165 0 l0 -187 l199 0 l0 -98 l-199 0 l0 -304 l-106 0 l0 304 l-243 0 l0 98 l243 0 l0 187 l-88 0 q-30 -64 -70 -129 l-97 46 q90 124 135 299 l105 -29 q-16 -49 -31 -89 ZM247 557 l-93 -55 q-50 88 -96 151 l87 54 q62 -86 102 -150 ZM333 106 l-123 -111 q-21 -20 -60 -67 l-80 75 q34 19 34 46 l0 297 l-94 0 l0 93 l193 0 l0 -323 l69 76 l61 -86 Z" /><glyph glyph-name="" unicode="&#x4e00;" d="M798 340 l-775 0 l0 105 l775 0 l0 -105 Z" /><glyph glyph-name="" unicode="&#x5f71;" d="M783 632 q-104 -119 -220 -210 l-68 67 q131 99 213 202 l75 -59 ZM226 401 l-14 31 l-158 0 l0 247 l432 0 l0 -247 l-181 0 q4 -7 13 -31 l200 0 l0 -76 l-503 0 l0 76 l211 0 ZM391 579 l0 29 l-242 0 l0 -29 l242 0 ZM149 529 l0 -29 l242 0 l0 29 l-242 0 ZM793 415 q-94 -119 -224 -233 l-71 70 q124 99 219 221 l76 -58 ZM407 125 q50 -42 103 -95 l-62 -56 q-72 75 -100 98 l56 53 l-76 0 l0 -116 q0 -39 -13 -56 q-13 -17 -32 -22.5 q-19 -5.5 -35 -7 q-16 -1.5 -80 -1.5 l-26 90 q42 -4 62 -4 q20 0 26.5 6.5 q6.5 6.5 6.5 24.5 l0 86 l-97 0 l60 -50 q-51 -56 -127 -123 l-67 60 q71 56 118 113 l-51 0 l0 173 l393 0 l0 -173 l-59 0 ZM375 196 l0 31 l-211 0 l0 -31 l211 0 ZM817 202 q-114 -168 -261 -287 l-78 68 q149 119 257 275 l82 -56 Z" /><glyph glyph-name="" unicode="&#x5728;" d="M231 499 l-201 0 l0 92 l258 0 q33 55 64 128 l100 -31 q-27 -57 -50 -97 l410 0 l0 -92 l-462 0 q-48 -77 -105 -151 l0 -430 l-105 0 l0 309 q-53 -53 -65 -64 l-72 77 q130 115 228 259 ZM485 227 l-174 0 l0 93 l174 0 l0 116 l106 0 l0 -116 l170 0 l0 -93 l-170 0 l0 -176 l221 0 l0 -93 l-540 0 l0 93 l213 0 l0 176 Z" /><glyph glyph-name="" unicode="&#x76f4;" d="M350 553 l-306 0 l0 90 l312 0 l6 70 l102 0 l-6 -70 l317 0 l0 -90 l-324 0 l-4 -44 l258 0 l0 -478 l104 0 l0 -90 l-799 0 l0 90 l117 0 l0 478 l219 0 l4 44 ZM227 383 l378 0 l0 38 l-378 0 l0 -38 ZM605 303 l-378 0 l0 -36 l378 0 l0 36 ZM227 187 l0 -37 l378 0 l0 37 l-378 0 ZM227 69 l0 -38 l378 0 l0 38 l-378 0 Z" /><glyph glyph-name="" unicode="&#x503c;" d="M480 540 l-201 0 l0 89 l209 0 l9 85 l100 0 l-9 -85 l204 0 l0 -89 l-213 0 l-3 -32 l192 0 l0 -480 l51 0 l0 -87 l-568 0 l0 87 l60 0 l0 480 l165 0 l4 32 ZM407 386 l266 0 l0 36 l-266 0 l0 -36 ZM673 306 l-266 0 l0 -38 l266 0 l0 38 ZM407 188 l0 -38 l266 0 l0 38 l-266 0 ZM407 70 l0 -42 l266 0 l0 42 l-266 0 ZM220 494 l0 -578 l-102 0 l0 386 q-16 -27 -41 -61 l-78 75 q120 165 184 395 l105 -25 q-26 -94 -68 -192 Z" /><glyph glyph-name="" unicode="&#x4e2d;" d="M462 567 l301 0 l0 -455 l-107 0 l0 49 l-194 0 l0 -245 l-105 0 l0 245 l-194 0 l0 -54 l-106 0 l0 460 l300 0 l0 147 l105 0 l0 -147 ZM357 257 l0 215 l-194 0 l0 -215 l194 0 ZM462 472 l0 -215 l194 0 l0 215 l-194 0 Z" /><glyph glyph-name="" unicode="&#x8f6c;" d="M481 507 l-101 0 l0 91 l121 0 l27 124 l95 -15 l-23 -109 l183 0 l0 -91 l-202 0 l-15 -68 l248 0 l0 -91 l-267 0 l-14 -65 l245 0 l0 -81 l-127 -153 l126 -61 l-60 -80 q-180 94 -345 166 l54 79 q62 -27 137 -62 l80 102 l-231 0 l34 155 l-100 0 l0 91 l120 0 l15 68 ZM99 525 l-81 0 l0 87 l107 0 q9 30 26 103 l95 -21 q-10 -31 -25 -82 l119 0 l0 -87 l-146 0 q-30 -90 -59 -171 l45 4 l0 103 l79 0 l0 -98 l62 4 l0 -82 l-62 -5 l0 -68 l100 21 l-2 -94 q-48 -9 -98 -21 l0 -202 l-98 0 l0 182 l-134 -28 l-24 95 q80 13 158 27 l0 82 q-54 -3 -118 -17 l-33 89 q15 6 21.5 13 q6.5 7 10.5 15 q4 8 23.5 59.5 q19.5 51.5 33.5 91.5 Z" /><glyph glyph-name="" unicode="&#x81ea;" d="M321 615 q14 50 27 108 l117 -19 l-30 -89 l283 0 l0 -697 l-107 0 l0 42 l-409 0 l0 -45 l-107 0 l0 700 l226 0 ZM202 427 l409 0 l0 91 l-409 0 l0 -91 ZM611 332 l-409 0 l0 -89 l409 0 l0 89 ZM202 149 l0 -91 l409 0 l0 91 l-409 0 Z" /></font>
</defs>
</svg>
